<?xml version="1.0" encoding="utf-8"?>
<!-- Generator: Adobe Illustrator 25.2.1, SVG Export Plug-In . SVG Version: 6.00 Build 0)  -->
<svg version="1.1" id="Layer_1" xmlns="http://www.w3.org/2000/svg" xmlns:xlink="http://www.w3.org/1999/xlink" x="0px" y="0px"
	 viewBox="0 0 82 20" style="enable-background:new 0 0 82 20;" xml:space="preserve">
<style type="text/css">
	.st0{fill:#FFFFFF;}
</style>
<g>
	<g>
		<path class="st0" d="M36.9,9.6h-4.6c-0.1,0-0.2,0.1-0.2,0.2v2.2c0,0.1,0.1,0.2,0.2,0.2H34V15c0,0-0.4,0.2-1.5,0.2
			c-1.3,0-3.2-0.4-3.2-4.5S31.3,6,33.1,6c1.6,0,2.2,0.3,2.7,0.4c0.2,0,0.3-0.1,0.3-0.2l0.5-2.2c0-0.1,0-0.1-0.1-0.2
			c-0.2-0.1-1.2-0.7-3.9-0.7c-3.1,0-6.2,1.3-6.2,7.6S30,18,33,18C35.5,18,37,17,37,17c0.1,0,0.1-0.1,0.1-0.2v-7
			C37,9.6,37,9.6,36.9,9.6z"/>
		<path class="st0" d="M60.6,4c0-0.1-0.1-0.2-0.2-0.2h-2.6c-0.1,0-0.2,0.1-0.2,0.2v5h-4.1V4c0-0.1-0.1-0.2-0.2-0.2h-2.6
			c-0.1,0-0.2,0.1-0.2,0.2v13.6c0,0.1,0.1,0.2,0.2,0.2h2.6c0.1,0,0.2-0.1,0.2-0.2v-5.8h4.1v5.8c0,0.1,0.1,0.2,0.2,0.2h2.6
			c0.1,0,0.2-0.1,0.2-0.2V4z"/>
		<g>
			<g>
				<path class="st0" d="M41.7,5.8c0-1-0.7-1.7-1.7-1.7c-0.9,0-1.7,0.8-1.7,1.7c0,1,0.7,1.7,1.7,1.7C41,7.4,41.7,6.7,41.7,5.8z"/>
				<path class="st0" d="M41.5,14.7c0-0.4,0-6.3,0-6.3c0-0.1-0.1-0.2-0.2-0.2h-2.6c-0.1,0-0.3,0.1-0.3,0.3c0,0,0,7.5,0,9
					c0,0.3,0.2,0.4,0.4,0.4c0,0,1.1,0,2.3,0c0.3,0,0.4-0.1,0.4-0.4C41.5,17,41.5,15,41.5,14.7z"/>
			</g>
		</g>
		<path class="st0" d="M70.5,8.2h-2.6c-0.1,0-0.2,0.1-0.2,0.2V15c0,0-0.6,0.4-1.6,0.4c-1,0-1.1-0.4-1.1-1.3s0-5.8,0-5.8
			c0-0.1-0.1-0.2-0.2-0.2h-2.7c-0.1,0-0.2,0.1-0.2,0.2c0,0,0,3.5,0,6.3s1.5,3.4,3.5,3.4c1.7,0,3.1-1,3.1-1l0.1,0.5
			c0,0.1,0.1,0.1,0.2,0.1h1.7c0.1,0,0.2-0.1,0.2-0.2V8.3C70.7,8.3,70.5,8.2,70.5,8.2z"/>
		<path class="st0" d="M77.5,8c-1.5,0-2.5,0.6-2.5,0.6V4c0-0.1-0.1-0.2-0.2-0.2h-2.6c-0.1,0-0.2,0.1-0.2,0.2v13.6
			c0,0.1,0.1,0.2,0.2,0.2h1.8c0.1,0,0.2,0,0.2-0.1c0.1-0.1,0.1-0.6,0.1-0.6s1.1,1,3.1,1c2.4,0,3.7-1.2,3.7-5.4
			C81.2,8.5,78.9,8,77.5,8z M76.5,15.6c-0.9,0-1.5-0.4-1.5-0.4v-4.3c0,0,0.6-0.4,1.3-0.4c0.9-0.1,1.9,0.2,1.9,2.4
			C78.1,15.1,77.7,15.7,76.5,15.6z"/>
		<path class="st0" d="M49.1,8.2h-1.9V5.7c0-0.1-0.1-0.2-0.2-0.2h-2.7c-0.1,0-0.2,0.1-0.2,0.2v2.7c0,0-1.3,0.4-1.4,0.4
			c-0.1,0-0.2,0.1-0.2,0.2v1.7c0,0.1,0.1,0.2,0.2,0.2h1.4c0,0,0,1.8,0,4c0,3,2.1,3.3,3.5,3.3c0.6,0,1.4-0.2,1.5-0.3
			c0.1,0,0.1-0.1,0.1-0.2v-1.9c0-0.1-0.1-0.2-0.2-0.2c-0.1,0-0.4,0.1-0.7,0.1c-1,0-1.2-0.4-1.2-1.1c0-0.6,0-3.8,0-3.8h1.9
			c0.1,0,0.2-0.1,0.2-0.2V8.4C49.2,8.3,49.2,8.2,49.1,8.2z"/>
	</g>
	<g>
		<path class="st0" d="M19.9,10.2c0-5.2-4.2-9.4-9.4-9.4S1.1,5,1.1,10.2c0,4.2,2.7,7.6,6.4,8.8C7.8,18.8,8,18.7,8,18.3
			c0-0.5,0-1.9,0-1.9s-0.4,0.2-1,0.2c-1.5,0-1.9-1-2.1-1.4c-0.3-0.7-0.6-1-1.1-1.2c-0.3-0.2-0.3-0.4,0-0.4c1.3-0.3,1.6,1.5,2.5,1.8
			c0.6,0.2,1.4,0.1,1.8-0.2c0.1-0.5,0.4-1,0.7-1.2c-2.2-0.2-3.5-1-4.2-2.2l-0.1-0.2l-0.2-0.4v-0.1c-0.2-0.6-0.3-1.3-0.3-2.1
			c0-1.4,0.4-1.9,1.1-2.7C4.6,4.6,5.2,3.5,5.2,3.5S6.1,3.3,8,4.6c1-0.4,3.6-0.4,4.8-0.1c0.8-0.5,2.1-1.2,2.7-1
			c0.2,0.3,0.4,1,0.2,2.5c0.2,0.4,1.1,1.1,1.1,3.1c0,0.8-0.1,1.4-0.3,1.9v0.3c0,0-0.1,0.1-0.1,0.3l-0.1,0.2c-0.6,1.4-2,1.9-4.2,2.2
			c0.7,0.4,0.9,1,0.9,2.5c0,1.5,0,1.7,0,2c0,0.3,0.3,0.5,0.4,0.7C17.2,17.9,19.9,14.3,19.9,10.2z"/>
	</g>
</g>
</svg>
