<?xml version="1.0" encoding="UTF-8" standalone="no"?>
<svg
   xmlns:dc="http://purl.org/dc/elements/1.1/"
   xmlns:cc="http://creativecommons.org/ns#"
   xmlns:rdf="http://www.w3.org/1999/02/22-rdf-syntax-ns#"
   xmlns:svg="http://www.w3.org/2000/svg"
   xmlns="http://www.w3.org/2000/svg"
   xmlns:sodipodi="http://sodipodi.sourceforge.net/DTD/sodipodi-0.dtd"
   xmlns:inkscape="http://www.inkscape.org/namespaces/inkscape"
   version="1.0"
   width="918.000000pt"
   height="1280.000000pt"
   viewBox="0 0 918.000000 1280.000000"
   preserveAspectRatio="xMidYMid meet"
   id="svg1584"
   sodipodi:docname="body2.svg"
   inkscape:version="0.92.5 (2060ec1f9f, 2020-04-08)">
  <defs
     id="defs1588" />
  <sodipodi:namedview
     pagecolor="#ffffff"
     bordercolor="#666666"
     borderopacity="1"
     objecttolerance="10"
     gridtolerance="10"
     guidetolerance="10"
     inkscape:pageopacity="0"
     inkscape:pageshadow="2"
     inkscape:window-width="1920"
     inkscape:window-height="1016"
     id="namedview1586"
     showgrid="false"
     inkscape:zoom="0.553125"
     inkscape:cx="564.87972"
     inkscape:cy="1179.7662"
     inkscape:window-x="0"
     inkscape:window-y="27"
     inkscape:window-maximized="1"
     inkscape:current-layer="svg1584" />
  <metadata
     id="metadata2">
Created by potrace 1.15, written by Peter Selinger 2001-2017
<rdf:RDF>
  <cc:Work
     rdf:about="">
    <dc:format>image/svg+xml</dc:format>
    <dc:type
       rdf:resource="http://purl.org/dc/dcmitype/StillImage" />
    <dc:title></dc:title>
  </cc:Work>
</rdf:RDF>
</metadata>
  <path
     style="fill:#f4f4ff;fill-opacity:1;stroke:#818181;stroke-width:1.6;stroke-miterlimit:4;stroke-dasharray:none;stroke-opacity:1;opacity:1"
     d="M 670.08008 0.55273438 C 632.14797 3.7963906 601.10215 39.90797 601.91877 77.671336 C 601.90943 86.67086 602.50376 95.699762 601.5625 104.67383 C 593.40326 98.644622 580.67406 108.9232 584.46289 118.19922 C 584.61908 137.47588 595.25877 155.46527 609.88867 167.5 C 616.5132 182.03622 613.15192 198.45409 616.34944 213.70644 C 617.45636 228.09909 617.7786 244.11355 608.80561 256.29531 C 594.9762 271.17473 574.7131 276.83134 558.38601 288.22071 C 533.18201 302.86482 505.74626 313.09919 478.22287 322.3893 C 461.79064 330.48075 452.53531 347.36987 444.94396 363.22139 C 432.42096 390.34504 429.50786 421.343 434.82697 450.60827 C 437.40111 469.41729 438.23366 488.96898 432.41256 507.29163 C 427.34994 527.56294 421.9492 548.10638 422.48871 569.1739 C 421.54637 587.92998 416.77951 606.60513 407.42857 622.96473 C 396.24734 647.23726 382.4759 671.34157 379.91733 698.44335 C 378.45644 721.51278 379.44613 745.29697 371.2693 767.32338 C 366.41627 782.32203 362.07518 797.48115 357.70567 812.61917 C 353.89769 824.27697 346.92142 836.04837 335.02195 840.8025 C 321.4875 847.31915 306.37097 851.58674 295.37821 862.37257 C 282.46144 873.4874 270.36876 885.83717 260.83398 900 C 258.91192 902.61099 257.53042 907.12581 261.35156 908.78906 C 267.33981 911.86206 274.47712 909.16716 280.08941 906.43219 C 289.29311 901.14301 295.79113 890.32959 307.25781 889.66797 C 312.47993 889.53771 315.2366 895.54001 313.88465 900.05535 C 312.22805 917.9044 311.76329 935.83218 309.96761 953.6725 C 308.93662 966.70023 307.13454 979.72427 306.01562 992.69587 C 307.90432 1000.5432 315.48843 1004.8888 320.09165 1010.9738 C 324.52445 1014.2429 329.46392 1010.0487 334.11521 1010.2635 C 338.01944 1010.9189 342.66992 1012.2789 345.77421 1008.8765 C 350.54561 1004.8093 354.18123 999.18402 360.33812 997.00392 C 369.09502 992.18287 376.93156 985.25509 381.27848 976.1213 C 402.5627 942.68323 412.83736 903.02132 413.65144 863.58152 C 414.37084 849.70169 417.99598 836.02195 424.54154 823.74436 C 434.59023 803.16054 445.82036 783.16482 455.22927 762.26521 C 469.16631 732.32844 480.29237 700.96643 486.54778 668.49352 C 490.21538 655.01759 496.10492 642.18924 498.58759 628.37742 C 500.53554 618.96252 500.79588 609.21279 504.28017 600.15267 C 508.73317 586.22923 514.53255 572.68715 517.45703 558.3125 C 529.0373 586.82276 531.62097 617.93549 532.7883 648.38783 C 533.34066 697.8559 526.23776 746.93897 521.70595 796.09066 C 516.78273 841.75696 514.00351 888.20596 521.62401 933.74765 C 531.502 1005.8825 554.5671 1075.206 575.20416 1144.7547 C 590.16402 1201.8074 587.83084 1261.611 581.53175 1319.7283 C 578.92128 1340.7548 579.49503 1362.1094 583.10919 1382.983 C 589.00228 1419.1712 600.12042 1454.2166 607.72753 1490.0417 C 613.22954 1515.3618 617.85959 1541.2418 616.72059 1567.2429 C 613.60443 1587.8106 599.78665 1604.3683 586.95703 1619.8848 C 573.96474 1634.7868 557.45582 1646.1585 544.36345 1660.9228 C 537.49451 1671.812 542.87963 1686.4827 552.4375 1693.8984 C 561.74273 1701.4875 574.19927 1702.1752 585.46247 1704.6339 C 591.98315 1705.4969 598.98515 1706.595 605.32826 1704.4944 C 616.23659 1699.1793 625.15039 1690.688 635.58285 1684.5923 C 653.61622 1671.3052 670.16575 1656.1362 686.93945 1641.3438 C 688.40115 1639.3543 690.58521 1634.855 693.40423 1637.6897 C 697.85473 1641.2064 700.87464 1646.1866 705.31342 1649.7289 C 724.73227 1669.876 744.30084 1691.4112 770.36797 1702.9311 C 780.36079 1705.2802 790.28126 1699.9706 800.30057 1701.6627 C 809.18711 1699.8821 815.71062 1693.0247 823.08594 1688.3125 C 830.55324 1681.1682 834.27757 1670.3479 833.5625 1660.1484 C 831.324 1650.1997 821.83366 1644.6617 814.42368 1638.7302 C 792.98634 1622.6571 774.20737 1601.622 765.0343 1576.1151 C 758.08236 1557.2096 758.57297 1536.5902 761.76102 1516.9787 C 765.41694 1494.6103 771.63858 1472.7553 775.33941 1450.3921 C 780.99008 1420.7784 787.46847 1391.3273 794.06399 1361.9169 C 800.397 1326.0515 796.92174 1289.252 789.75977 1253.7926 C 785.59801 1221.8996 789.8783 1189.6174 795.9375 1158.2578 C 801.68698 1132.0653 811.71922 1107.0994 819.03042 1081.3434 C 831.98131 1037.0501 845.72332 992.57716 850.24284 946.44637 C 852.19299 926.53065 852.28562 906.49634 853.2921 886.52165 C 853.71864 871.50691 854.49847 856.44448 854.03531 841.44302 C 851.97431 829.03483 847.14014 816.79386 848.87603 804.02121 C 849.45169 786.59051 846.11969 769.21326 840.15591 752.8764 C 836.78896 741.75644 840.84768 730.19035 838.95985 718.89269 C 838.27069 711.54022 834.2089 705.17844 832.74805 698.00781 C 824.69822 669.27192 822.08676 638.26615 830.32644 609.26036 C 834.78152 588.569 837.87166 567.39943 836.89258 546.18359 C 838.9669 542.13293 845.27401 545.58321 844.50031 549.51927 C 853.12746 578.92101 865.28319 607.15298 878.23625 634.85198 C 882.74873 659.40331 877.6539 684.62471 882.50597 709.1484 C 887.3002 755.1299 903.33066 799.15015 907.66399 845.18796 C 907.29827 858.87477 897.88664 869.87146 888.83789 879.19727 C 877.42668 893.20056 871.04555 910.3534 861.73812 925.68388 C 859.89893 929.31892 856.9895 932.79243 856.36328 936.82031 C 857.70204 944.66254 869.40443 946.63631 873.87305 940.34961 C 876.91131 937.5857 879.74909 933.04142 884.42773 933.53906 C 888.75939 938.26555 886.64713 945.28015 889.03639 950.81206 C 893.2278 972.63344 894.84964 996.15455 908.01402 1014.9086 C 912.91705 1021.6236 916.67362 1029.1571 921.1976 1036.0569 C 927.29123 1039.7731 933.76471 1034.212 940.16406 1034.7051 C 944.73614 1034.3446 947.83132 1030.4625 948.76379 1026.231 C 950.477 1021.0557 953.46075 1015.8551 958.86707 1013.9164 C 964.74901 1010.6735 968.67372 1004.8225 970.10995 998.33754 C 973.84932 986.13224 976.29651 973.57417 979.31822 961.1834 C 984.2966 937.26174 985.59806 911.89667 977.99802 888.36577 C 971.70319 862.28514 974.02263 835.24964 974.18931 808.69562 C 975.97581 744.39634 982.54119 679.58395 972.64636 615.60913 C 969.49561 596.35171 960.35505 578.84522 955.5304 560.04172 C 947.89192 532.51948 941.57185 504.64366 933.49484 477.23879 C 927.65781 457.6973 922.90255 437.84486 919.5642 417.72108 C 916.75096 400.45617 912.87422 383.19413 905.20643 367.36294 C 893.39578 341.73983 873.35854 318.42799 846.29378 308.57811 C 832.19832 303.41995 817.42247 299.71006 804.49265 291.81485 C 792.2463 284.96821 781.83503 275.4414 770.04506 267.90518 C 758.52776 259.87 746.76841 249.44903 744.27237 234.90137 C 741.17516 220.40394 742.06243 205.17569 745.51203 190.84652 C 748.90983 182.10506 751.08809 172.76351 755.63867 164.54688 C 762.02723 156.83274 772.11824 150.76939 773.24119 139.91213 C 775.58475 128.38882 777.32819 115.55721 771.71945 104.69561 C 768.34368 100.92838 761.47401 98.420473 762.60256 92.252098 C 766.52492 59.47047 748.99342 24.586515 718.96313 10.09147 C 703.73434 3.0882351 686.8004 0.02732502 670.08008 0.55273438 z M 748.13867 188.2793 C 748.33642 188.96188 748.3195 188.3183 748.13867 188.2793 z M 385.36328 665.08203 C 385.55531 665.15856 385.73171 664.41959 385.36328 665.08203 z M 889.03516 768.86133 C 889.22648 768.90765 889.32493 768.63514 889.03516 768.86133 z M 884.55078 878.73633 C 884.72509 878.81257 884.79266 878.47165 884.55078 878.73633 z M 853.17773 945.35742 L 853.41602 945.1582 L 853.17773 945.35742 z M 684.99609 1012.9863 C 687.47815 1102.528 686.41642 1192.1965 691.93857 1281.6321 C 691.07436 1289.5026 689.15154 1297.2354 686.46289 1304.6758 C 675.33539 1281.8421 677.00555 1255.3264 682.07392 1231.1339 C 689.70224 1171.3077 680.8185 1111.0782 683.30072 1051.0709 C 683.47143 1036.379 683.92238 1021.6911 684.5918 1007.0137 C 684.72656 1009.0046 684.86133 1010.9954 684.99609 1012.9863 z M 687.55078 1380.8496 C 693.36934 1435.1017 701.20611 1489.9948 693.82698 1544.5057 C 691.34631 1568.0808 692.09096 1591.8175 692.04297 1615.4785 C 683.70363 1593.1937 689.38224 1568.8999 684.34543 1546.0244 C 680.20108 1513.3646 681.34367 1480.336 683.68427 1447.5877 C 684.87945 1422.3473 686.02288 1397.1021 686.64062 1371.8398 C 686.94401 1374.8431 687.2474 1377.8464 687.55078 1380.8496 z "
     id="path4"
     transform="scale(0.75000001)" />
</svg>
