<?xml version="1.0" encoding="utf-8"?>
<!-- Generator: Adobe Illustrator 26.0.0, SVG Export Plug-In . SVG Version: 6.00 Build 0)  -->
<svg version="1.1" id="Layer_1" xmlns="http://www.w3.org/2000/svg" xmlns:xlink="http://www.w3.org/1999/xlink" x="0px" y="0px"
	 viewBox="0 0 280 110" style="enable-background:new 0 0 280 110;" xml:space="preserve">
<style type="text/css">
	.st0{fill:#FFFFFF;}
	.st1{enable-background:new    ;}
	.st2{fill:#FFB549;}
	.st3{clip-path:url(#SVGID_00000119828746646858590160000001248709121960591782_);fill:#FFFFFF;}
	
		.st4{opacity:0.15;clip-path:url(#SVGID_00000072993766687113415880000015722762572344599691_);fill:#1C2B56;enable-background:new    ;}
	
		.st5{opacity:0.15;clip-path:url(#SVGID_00000140001480392643009640000001495043172988579461_);fill:#1C2B56;enable-background:new    ;}
	
		.st6{opacity:0.15;clip-path:url(#SVGID_00000135651466722371227090000013910493743673269687_);fill:#1C2B56;enable-background:new    ;}
</style>
<g>
	<g>
		<g>
			<path class="st0" d="M142.8,52.8c1.8,5.9,6,10.1,15.6,10.1c9.7,0,13.6-3.9,13.6-8.7c0-5-2.7-8.1-15.4-10.2
				c-13.4-2.3-16.9-6.4-16.9-12.8c0-7.9,7.5-12.6,17.4-12.6c15,0,18.3,7.9,18.8,12.4h-5.4c-1-3.4-3.1-7.9-13.6-7.9
				c-7.1,0-11.9,2.5-11.9,7.6c0,4.1,1.9,6.8,13,8.7c16.6,2.8,19.3,8,19.3,14.3c0,7.3-5.8,13.6-19.4,13.6c-12.6,0-19.2-5.8-20.8-14.4
				h5.7V52.8z"/>
			<path class="st0" d="M188.3,19.5h21.3c11.8,0,16.6,6.1,16.6,13.5c0,9.1-6.2,14-16.2,14h-16.4v19.2h-5.3L188.3,19.5L188.3,19.5z
				 M193.6,42.4H209c6.9,0,11.8-2,11.8-9.3c0-5.7-3.9-8.9-11.8-8.9h-15.4V42.4z"/>
			<path class="st0" d="M249.6,24.2h-18.2v-4.6h41.7v4.6h-18.2v42.1h-5.3V24.2z"/>
		</g>
		<g class="st1">
			<path class="st0" d="M136.6,100.3V83.1h4.8c1.5,0,2.8,0.3,4,1s2,1.6,2.7,2.8c0.6,1.2,0.9,2.6,0.9,4.2v1.1c0,1.6-0.3,3-0.9,4.2
				c-0.6,1.2-1.5,2.2-2.7,2.8s-2.5,1-4,1H136.6z M138.9,85v13.4h2.4c1.7,0,3.1-0.5,4.1-1.6c1-1.1,1.5-2.6,1.5-4.6v-1
				c0-1.9-0.5-3.5-1.4-4.5s-2.2-1.6-3.9-1.6H138.9z"/>
			<path class="st0" d="M161.6,95.8h-7.2l-1.6,4.5h-2.3l6.5-17.1h2l6.6,17.1h-2.3L161.6,95.8z M155.1,93.9h5.8l-2.9-8L155.1,93.9z"
				/>
			<path class="st0" d="M172.9,92.6c-1.9-0.6-3.3-1.2-4.2-2.1c-0.9-0.8-1.3-1.8-1.3-3c0-1.3,0.5-2.5,1.6-3.3s2.5-1.3,4.2-1.3
				c1.2,0,2.2,0.2,3.1,0.7s1.6,1.1,2.1,1.9c0.5,0.8,0.8,1.7,0.8,2.6H177c0-1-0.3-1.9-1-2.5c-0.7-0.6-1.6-0.9-2.8-0.9
				c-1.1,0-2,0.2-2.6,0.7c-0.6,0.5-0.9,1.2-0.9,2c0,0.7,0.3,1.3,0.9,1.8s1.6,0.9,3,1.3c1.4,0.4,2.5,0.8,3.3,1.3
				c0.8,0.5,1.4,1,1.8,1.7s0.6,1.4,0.6,2.3c0,1.4-0.5,2.5-1.6,3.3c-1.1,0.8-2.5,1.3-4.3,1.3c-1.2,0-2.3-0.2-3.3-0.7
				c-1-0.5-1.8-1.1-2.4-1.9c-0.6-0.8-0.8-1.7-0.8-2.7h2.3c0,1,0.4,1.9,1.1,2.5c0.8,0.6,1.8,0.9,3.1,0.9c1.2,0,2.1-0.2,2.7-0.7
				c0.6-0.5,1-1.1,1-2c0-0.8-0.3-1.5-0.9-1.9C175.6,93.5,174.5,93.1,172.9,92.6z"/>
			<path class="st0" d="M195.4,100.3h-2.3v-7.9h-8.6v7.9h-2.3V83.1h2.3v7.4h8.6v-7.4h2.3V100.3z"/>
			<path class="st0" d="M199.4,100.3V83.1h5.6c1.9,0,3.3,0.4,4.2,1.2c0.9,0.8,1.4,1.9,1.4,3.4c0,0.8-0.2,1.5-0.7,2.1
				s-1.1,1.1-1.9,1.4c0.9,0.3,1.7,0.8,2.2,1.5c0.5,0.7,0.8,1.6,0.8,2.6c0,1.5-0.5,2.7-1.5,3.6c-1,0.9-2.4,1.3-4.2,1.3H199.4z
				 M201.6,90.4h3.4c1,0,1.8-0.2,2.4-0.7c0.6-0.5,0.9-1.2,0.9-2c0-0.9-0.3-1.6-0.8-2.1c-0.5-0.4-1.4-0.6-2.5-0.6h-3.3V90.4z
				 M201.6,92.2v6.2h3.7c1.1,0,1.9-0.3,2.5-0.8c0.6-0.5,0.9-1.3,0.9-2.3c0-2.1-1.1-3.1-3.4-3.1H201.6z"/>
			<path class="st0" d="M227.6,92.2c0,1.7-0.3,3.1-0.8,4.4c-0.6,1.3-1.4,2.2-2.4,2.9c-1,0.7-2.2,1-3.6,1c-1.4,0-2.5-0.3-3.6-1
				c-1-0.7-1.9-1.6-2.4-2.8c-0.6-1.2-0.9-2.7-0.9-4.3v-1.2c0-1.6,0.3-3.1,0.9-4.4c0.6-1.3,1.4-2.2,2.4-2.9c1-0.7,2.2-1,3.6-1
				c1.4,0,2.6,0.3,3.6,1c1,0.7,1.9,1.6,2.4,2.9c0.6,1.3,0.8,2.7,0.8,4.4V92.2z M225.3,91.1c0-2-0.4-3.6-1.2-4.7
				c-0.8-1.1-2-1.6-3.4-1.6c-1.4,0-2.6,0.5-3.4,1.6c-0.8,1.1-1.2,2.6-1.3,4.5v1.3c0,2,0.4,3.5,1.2,4.6s2,1.7,3.4,1.7
				c1.5,0,2.6-0.5,3.4-1.6c0.8-1.1,1.2-2.6,1.2-4.6V91.1z"/>
			<path class="st0" d="M240.2,95.8H233l-1.6,4.5h-2.3l6.5-17.1h2l6.6,17.1h-2.3L240.2,95.8z M233.7,93.9h5.8l-2.9-8L233.7,93.9z"/>
			<path class="st0" d="M252.7,93.3h-4v6.9h-2.3V83.1h5.7c1.9,0,3.4,0.4,4.5,1.3c1,0.9,1.6,2.2,1.6,3.8c0,1.1-0.3,2-0.9,2.8
				c-0.6,0.8-1.4,1.4-2.4,1.8l4,7.3v0.1h-2.4L252.7,93.3z M248.7,91.5h3.5c1.1,0,2-0.3,2.7-0.9s1-1.4,1-2.3c0-1.1-0.3-1.9-0.9-2.4
				s-1.5-0.9-2.7-0.9h-3.5V91.5z"/>
			<path class="st0" d="M261.3,100.3V83.1h4.8c1.5,0,2.8,0.3,4,1c1.1,0.7,2,1.6,2.7,2.8c0.6,1.2,0.9,2.6,0.9,4.2v1.1
				c0,1.6-0.3,3-0.9,4.2c-0.6,1.2-1.5,2.2-2.7,2.8c-1.2,0.7-2.5,1-4,1H261.3z M263.5,85v13.4h2.4c1.7,0,3.1-0.5,4.1-1.6
				c1-1.1,1.5-2.6,1.5-4.6v-1c0-1.9-0.5-3.5-1.4-4.5s-2.2-1.6-3.9-1.6H263.5z"/>
		</g>
	</g>
	<g>
		<g>
			<path class="st2" d="M42.2,73.6c-3.1,2-5.4,3-6.1,2.2c-0.7-0.7,0.2-3,2.3-6.1c-0.6-0.8-1.2-1.6-1.7-2.4l-8.5,8.5
				c-4.4-1.5-9.5-0.5-13,3c-3.6,3.6-4.5,8.7-3,13.2l6.1-6.1l0,0l0.1-0.1c2.1-2.1,5.6-2.1,7.7,0s2.1,5.6,0,7.7L26,93.6l0,0l-6,6.1
				c4.5,1.6,9.6,0.6,13.2-3c3.5-3.5,4.5-8.6,3-13l8.5-8.5C43.8,74.8,43,74.3,42.2,73.6z"/>
			<path class="st2" d="M101.7,18l-6.1,6.1l0,0l-0.1,0.1c-2.1,2.1-5.6,2.1-7.7,0s-2.1-5.6,0-7.7l0.1-0.1l0,0l6.1-6.1
				c-4.5-1.6-9.6-0.6-13.2,3c-3.5,3.5-4.5,8.6-3,13l-8.5,8.5c0.9,0.5,1.7,1,2.4,1.7c3.1-2,5.4-3,6.1-2.2c0.7,0.7-0.2,3-2.3,6.1
				c0.6,0.8,1.2,1.6,1.7,2.4l8.5-8.5c4.4,1.5,9.5,0.5,13-3C102.3,27.6,103.3,22.4,101.7,18z"/>
			<path class="st2" d="M54.8,62.6c-2.3,0-4.1,1.8-4.1,4.1c0,2.3,1.8,4.1,4.1,4.1s4.1-1.8,4.1-4.1C58.9,64.4,57.1,62.6,54.8,62.6z"
				/>
			<path class="st2" d="M53,40.7c-3.7,0-6.7,3-6.7,6.7s3,6.7,6.7,6.7s6.7-3,6.7-6.7S56.7,40.7,53,40.7z"/>
			<path class="st2" d="M66.8,51.5c-3,0-5.5,2.5-5.5,5.5s2.5,5.5,5.5,5.5s5.5-2.5,5.5-5.5S69.8,51.5,66.8,51.5z"/>
		</g>
		<g>
			<g>
				<defs>
					<path id="SVGID_1_" d="M103,30.6c-0.6,1-1.3,1.9-2.1,2.7c-3,3-6.9,4.6-11.1,4.6c-1.1,0-2.1-0.1-3.1-0.3l-7.9,7.9
						c0.1,0.3,0.2,0.5,0.3,0.8c3.8-0.2,6.2,0.1,6.5,1.1s-1.6,2.5-5,4.2c0.3,2.3,0.2,4.6-0.1,6.9c3.4,1.7,5.3,3.2,5.1,4.2
						c-0.3,1-2.7,1.3-6.5,1.1c-0.9,2.2-2,4.3-3.4,6c2,3.1,3,5.4,2.2,6.1c-0.7,0.7-3-0.2-6.1-2.3c-1.8,1.4-3.8,2.6-6,3.5
						c0.2,3.8-0.1,6.2-1.1,6.5s-2.5-1.6-4.2-5c-2.3,0.3-4.6,0.2-6.9-0.1c-1.7,3.4-3.2,5.3-4.2,5.1c-1-0.3-1.3-2.7-1.1-6.5
						c-0.2-0.1-0.5-0.2-0.7-0.3l-8,8c1.1,5.1-0.5,10.4-4.3,14.2c-0.8,0.8-1.7,1.5-2.7,2.1c7.3,3.9,15.6,6.1,24.4,6.1
						c28.8,0,52.1-23.3,52.1-52.1C109.1,46.2,106.9,37.9,103,30.6z M58.9,96.3c-1,1-2.7,1-3.7,0s-1-2.7,0-3.7s2.7-1,3.7,0
						C59.9,93.6,59.9,95.3,58.9,96.3z M89.5,87.2c-2.1,2.1-5.5,2.2-7.7,0.1c-2.1-2.1-2.2-5.5-0.1-7.7c2.1-2.1,5.5-2.2,7.7-0.1
						C91.5,81.7,91.6,85.1,89.5,87.2z M98.3,56.9c-1,1-2.7,1-3.7,0s-1-2.7,0-3.7s2.7-1,3.7,0S99.3,55.8,98.3,56.9z M34.9,63.7
						c-3.8,0.2-6.2-0.1-6.5-1.1s1.6-2.5,5-4.2c-0.3-2.3-0.2-4.6,0.1-6.9c-3.4-1.7-5.3-3.2-5.1-4.2c0.3-1,2.7-1.3,6.5-1.1
						c0.9-2.2,2-4.3,3.4-6c-2-3.1-3-5.4-2.2-6.1c0.7-0.7,3,0.2,6.1,2.3c1.8-1.4,3.8-2.6,6-3.5c-0.2-3.8,0.1-6.2,1.1-6.5
						s2.5,1.6,4.2,5c2.3-0.3,4.6-0.2,6.9,0.1c1.7-3.4,3.2-5.3,4.2-5.1c1,0.3,1.3,2.7,1.1,6.5c0.2,0.1,0.5,0.2,0.7,0.3l8-8
						c-1.1-5.1,0.5-10.4,4.3-14.2c0.8-0.8,1.7-1.5,2.7-2.1c-7.3-3.8-15.6-6-24.4-6C28.2,2.9,4.9,26.2,4.9,55
						c0,8.8,2.2,17.1,6.1,24.4c0.6-1,1.3-1.9,2.1-2.7c3-3,6.9-4.6,11.1-4.6c1.1,0,2.1,0.1,3.1,0.3l7.9-7.9
						C35.1,64.3,35,64,34.9,63.7z M55.1,13.7c1-1,2.7-1,3.7,0s1,2.7,0,3.7s-2.7,1-3.7,0S54.1,14.7,55.1,13.7z M19.4,56.9
						c-1,1-2.7,1-3.7,0s-1-2.7,0-3.7s2.7-1,3.7,0S20.4,55.8,19.4,56.9z M22.5,30.4c-2.1-2.1-2.2-5.5-0.1-7.7s5.5-2.2,7.7-0.1
						c2.1,2.1,2.2,5.5,0.1,7.7S24.7,32.5,22.5,30.4z"/>
				</defs>
				<clipPath id="SVGID_00000155848071476677328040000005353419497487739047_">
					<use xlink:href="#SVGID_1_"  style="overflow:visible;"/>
				</clipPath>
				
					<circle style="clip-path:url(#SVGID_00000155848071476677328040000005353419497487739047_);fill:#FFFFFF;" cx="57.1" cy="55" r="58.2"/>
			</g>
			<g>
				<defs>
					<path id="SVGID_00000108292669880299030600000006654387263577991589_" d="M103,30.6c-0.6,1-1.3,1.9-2.1,2.7
						c-3,3-6.9,4.6-11.1,4.6c-1.1,0-2.1-0.1-3.1-0.3l-7.9,7.9c0.1,0.3,0.2,0.5,0.3,0.8c3.8-0.2,6.2,0.1,6.5,1.1s-1.6,2.5-5,4.2
						c0.3,2.3,0.2,4.6-0.1,6.9c3.4,1.7,5.3,3.2,5.1,4.2c-0.3,1-2.7,1.3-6.5,1.1c-0.9,2.2-2,4.3-3.4,6c2,3.1,3,5.4,2.2,6.1
						c-0.7,0.7-3-0.2-6.1-2.3c-1.8,1.4-3.8,2.6-6,3.5c0.2,3.8-0.1,6.2-1.1,6.5s-2.5-1.6-4.2-5c-2.3,0.3-4.6,0.2-6.9-0.1
						c-1.7,3.4-3.2,5.3-4.2,5.1c-1-0.3-1.3-2.7-1.1-6.5c-0.2-0.1-0.5-0.2-0.7-0.3l-8,8c1.1,5.1-0.5,10.4-4.3,14.2
						c-0.8,0.8-1.7,1.5-2.7,2.1c7.3,3.9,15.6,6.1,24.4,6.1c28.8,0,52.1-23.3,52.1-52.1C109.1,46.2,106.9,37.9,103,30.6z M58.9,96.3
						c-1,1-2.7,1-3.7,0s-1-2.7,0-3.7s2.7-1,3.7,0C59.9,93.6,59.9,95.3,58.9,96.3z M89.5,87.2c-2.1,2.1-5.5,2.2-7.7,0.1
						c-2.1-2.1-2.2-5.5-0.1-7.7c2.1-2.1,5.5-2.2,7.7-0.1C91.5,81.7,91.6,85.1,89.5,87.2z M98.3,56.9c-1,1-2.7,1-3.7,0s-1-2.7,0-3.7
						s2.7-1,3.7,0S99.3,55.8,98.3,56.9z M34.9,63.7c-3.8,0.2-6.2-0.1-6.5-1.1s1.6-2.5,5-4.2c-0.3-2.3-0.2-4.6,0.1-6.9
						c-3.4-1.7-5.3-3.2-5.1-4.2c0.3-1,2.7-1.3,6.5-1.1c0.9-2.2,2-4.3,3.4-6c-2-3.1-3-5.4-2.2-6.1c0.7-0.7,3,0.2,6.1,2.3
						c1.8-1.4,3.8-2.6,6-3.5c-0.2-3.8,0.1-6.2,1.1-6.5s2.5,1.6,4.2,5c2.3-0.3,4.6-0.2,6.9,0.1c1.7-3.4,3.2-5.3,4.2-5.1
						c1,0.3,1.3,2.7,1.1,6.5c0.2,0.1,0.5,0.2,0.7,0.3l8-8c-1.1-5.1,0.5-10.4,4.3-14.2c0.8-0.8,1.7-1.5,2.7-2.1
						c-7.3-3.8-15.6-6-24.4-6C28.2,2.9,4.9,26.2,4.9,55c0,8.8,2.2,17.1,6.1,24.4c0.6-1,1.3-1.9,2.1-2.7c3-3,6.9-4.6,11.1-4.6
						c1.1,0,2.1,0.1,3.1,0.3l7.9-7.9C35.1,64.3,35,64,34.9,63.7z M55.1,13.7c1-1,2.7-1,3.7,0s1,2.7,0,3.7s-2.7,1-3.7,0
						S54.1,14.7,55.1,13.7z M19.4,56.9c-1,1-2.7,1-3.7,0s-1-2.7,0-3.7s2.7-1,3.7,0S20.4,55.8,19.4,56.9z M22.5,30.4
						c-2.1-2.1-2.2-5.5-0.1-7.7s5.5-2.2,7.7-0.1c2.1,2.1,2.2,5.5,0.1,7.7S24.7,32.5,22.5,30.4z"/>
				</defs>
				<clipPath id="SVGID_00000008109442077333541410000008968071831500776338_">
					<use xlink:href="#SVGID_00000108292669880299030600000006654387263577991589_"  style="overflow:visible;"/>
				</clipPath>
				
					<ellipse style="opacity:0.15;clip-path:url(#SVGID_00000008109442077333541410000008968071831500776338_);fill:#1C2B56;enable-background:new    ;" cx="57" cy="55" rx="58.6" ry="19.1"/>
			</g>
			<g>
				<defs>
					<path id="SVGID_00000120544796710583926160000010057141177386203822_" d="M103,30.6c-0.6,1-1.3,1.9-2.1,2.7
						c-3,3-6.9,4.6-11.1,4.6c-1.1,0-2.1-0.1-3.1-0.3l-7.9,7.9c0.1,0.3,0.2,0.5,0.3,0.8c3.8-0.2,6.2,0.1,6.5,1.1s-1.6,2.5-5,4.2
						c0.3,2.3,0.2,4.6-0.1,6.9c3.4,1.7,5.3,3.2,5.1,4.2c-0.3,1-2.7,1.3-6.5,1.1c-0.9,2.2-2,4.3-3.4,6c2,3.1,3,5.4,2.2,6.1
						c-0.7,0.7-3-0.2-6.1-2.3c-1.8,1.4-3.8,2.6-6,3.5c0.2,3.8-0.1,6.2-1.1,6.5s-2.5-1.6-4.2-5c-2.3,0.3-4.6,0.2-6.9-0.1
						c-1.7,3.4-3.2,5.3-4.2,5.1c-1-0.3-1.3-2.7-1.1-6.5c-0.2-0.1-0.5-0.2-0.7-0.3l-8,8c1.1,5.1-0.5,10.4-4.3,14.2
						c-0.8,0.8-1.7,1.5-2.7,2.1c7.3,3.9,15.6,6.1,24.4,6.1c28.8,0,52.1-23.3,52.1-52.1C109.1,46.2,106.9,37.9,103,30.6z M58.9,96.3
						c-1,1-2.7,1-3.7,0s-1-2.7,0-3.7s2.7-1,3.7,0C59.9,93.6,59.9,95.3,58.9,96.3z M89.5,87.2c-2.1,2.1-5.5,2.2-7.7,0.1
						c-2.1-2.1-2.2-5.5-0.1-7.7c2.1-2.1,5.5-2.2,7.7-0.1C91.5,81.7,91.6,85.1,89.5,87.2z M98.3,56.9c-1,1-2.7,1-3.7,0s-1-2.7,0-3.7
						s2.7-1,3.7,0S99.3,55.8,98.3,56.9z M34.9,63.7c-3.8,0.2-6.2-0.1-6.5-1.1s1.6-2.5,5-4.2c-0.3-2.3-0.2-4.6,0.1-6.9
						c-3.4-1.7-5.3-3.2-5.1-4.2c0.3-1,2.7-1.3,6.5-1.1c0.9-2.2,2-4.3,3.4-6c-2-3.1-3-5.4-2.2-6.1c0.7-0.7,3,0.2,6.1,2.3
						c1.8-1.4,3.8-2.6,6-3.5c-0.2-3.8,0.1-6.2,1.1-6.5s2.5,1.6,4.2,5c2.3-0.3,4.6-0.2,6.9,0.1c1.7-3.4,3.2-5.3,4.2-5.1
						c1,0.3,1.3,2.7,1.1,6.5c0.2,0.1,0.5,0.2,0.7,0.3l8-8c-1.1-5.1,0.5-10.4,4.3-14.2c0.8-0.8,1.7-1.5,2.7-2.1
						c-7.3-3.8-15.6-6-24.4-6C28.2,2.9,4.9,26.2,4.9,55c0,8.8,2.2,17.1,6.1,24.4c0.6-1,1.3-1.9,2.1-2.7c3-3,6.9-4.6,11.1-4.6
						c1.1,0,2.1,0.1,3.1,0.3l7.9-7.9C35.1,64.3,35,64,34.9,63.7z M55.1,13.7c1-1,2.7-1,3.7,0s1,2.7,0,3.7s-2.7,1-3.7,0
						S54.1,14.7,55.1,13.7z M19.4,56.9c-1,1-2.7,1-3.7,0s-1-2.7,0-3.7s2.7-1,3.7,0S20.4,55.8,19.4,56.9z M22.5,30.4
						c-2.1-2.1-2.2-5.5-0.1-7.7s5.5-2.2,7.7-0.1c2.1,2.1,2.2,5.5,0.1,7.7S24.7,32.5,22.5,30.4z"/>
				</defs>
				<clipPath id="SVGID_00000035507340024511520680000001430803633116216721_">
					<use xlink:href="#SVGID_00000120544796710583926160000010057141177386203822_"  style="overflow:visible;"/>
				</clipPath>
				
					<ellipse style="opacity:0.15;clip-path:url(#SVGID_00000035507340024511520680000001430803633116216721_);fill:#1C2B56;enable-background:new    ;" cx="57" cy="55" rx="18.1" ry="55.5"/>
			</g>
			<g>
				<defs>
					<path id="SVGID_00000093149617180762952710000006956591893217284490_" d="M103,30.6c-0.6,1-1.3,1.9-2.1,2.7
						c-3,3-6.9,4.6-11.1,4.6c-1.1,0-2.1-0.1-3.1-0.3l-7.9,7.9c0.1,0.3,0.2,0.5,0.3,0.8c3.8-0.2,6.2,0.1,6.5,1.1s-1.6,2.5-5,4.2
						c0.3,2.3,0.2,4.6-0.1,6.9c3.4,1.7,5.3,3.2,5.1,4.2c-0.3,1-2.7,1.3-6.5,1.1c-0.9,2.2-2,4.3-3.4,6c2,3.1,3,5.4,2.2,6.1
						c-0.7,0.7-3-0.2-6.1-2.3c-1.8,1.4-3.8,2.6-6,3.5c0.2,3.8-0.1,6.2-1.1,6.5s-2.5-1.6-4.2-5c-2.3,0.3-4.6,0.2-6.9-0.1
						c-1.7,3.4-3.2,5.3-4.2,5.1c-1-0.3-1.3-2.7-1.1-6.5c-0.2-0.1-0.5-0.2-0.7-0.3l-8,8c1.1,5.1-0.5,10.4-4.3,14.2
						c-0.8,0.8-1.7,1.5-2.7,2.1c7.3,3.9,15.6,6.1,24.4,6.1c28.8,0,52.1-23.3,52.1-52.1C109.1,46.2,106.9,37.9,103,30.6z M58.9,96.3
						c-1,1-2.7,1-3.7,0s-1-2.7,0-3.7s2.7-1,3.7,0C59.9,93.6,59.9,95.3,58.9,96.3z M89.5,87.2c-2.1,2.1-5.5,2.2-7.7,0.1
						c-2.1-2.1-2.2-5.5-0.1-7.7c2.1-2.1,5.5-2.2,7.7-0.1C91.5,81.7,91.6,85.1,89.5,87.2z M98.3,56.9c-1,1-2.7,1-3.7,0s-1-2.7,0-3.7
						s2.7-1,3.7,0S99.3,55.8,98.3,56.9z M34.9,63.7c-3.8,0.2-6.2-0.1-6.5-1.1s1.6-2.5,5-4.2c-0.3-2.3-0.2-4.6,0.1-6.9
						c-3.4-1.7-5.3-3.2-5.1-4.2c0.3-1,2.7-1.3,6.5-1.1c0.9-2.2,2-4.3,3.4-6c-2-3.1-3-5.4-2.2-6.1c0.7-0.7,3,0.2,6.1,2.3
						c1.8-1.4,3.8-2.6,6-3.5c-0.2-3.8,0.1-6.2,1.1-6.5s2.5,1.6,4.2,5c2.3-0.3,4.6-0.2,6.9,0.1c1.7-3.4,3.2-5.3,4.2-5.1
						c1,0.3,1.3,2.7,1.1,6.5c0.2,0.1,0.5,0.2,0.7,0.3l8-8c-1.1-5.1,0.5-10.4,4.3-14.2c0.8-0.8,1.7-1.5,2.7-2.1
						c-7.3-3.8-15.6-6-24.4-6C28.2,2.9,4.9,26.2,4.9,55c0,8.8,2.2,17.1,6.1,24.4c0.6-1,1.3-1.9,2.1-2.7c3-3,6.9-4.6,11.1-4.6
						c1.1,0,2.1,0.1,3.1,0.3l7.9-7.9C35.1,64.3,35,64,34.9,63.7z M55.1,13.7c1-1,2.7-1,3.7,0s1,2.7,0,3.7s-2.7,1-3.7,0
						S54.1,14.7,55.1,13.7z M19.4,56.9c-1,1-2.7,1-3.7,0s-1-2.7,0-3.7s2.7-1,3.7,0S20.4,55.8,19.4,56.9z M22.5,30.4
						c-2.1-2.1-2.2-5.5-0.1-7.7s5.5-2.2,7.7-0.1c2.1,2.1,2.2,5.5,0.1,7.7S24.7,32.5,22.5,30.4z"/>
				</defs>
				<clipPath id="SVGID_00000031897054212186089680000003999223265197009081_">
					<use xlink:href="#SVGID_00000093149617180762952710000006956591893217284490_"  style="overflow:visible;"/>
				</clipPath>
				
					<path style="opacity:0.15;clip-path:url(#SVGID_00000031897054212186089680000003999223265197009081_);fill:#1C2B56;enable-background:new    ;" d="
					M104.6,88.7c-2.2-12.1-15.2-31.2-34.4-49C52.1,22.9,33.3,11.7,21,9.3c-5.1,4-9.5,8.9-13,14.4c3.4,12.1,15.9,29.9,33.8,46.6
					c19,17.7,38.8,29.2,51,30.7C97.3,97.5,101.3,93.4,104.6,88.7z"/>
			</g>
		</g>
	</g>
</g>
</svg>
